<svg xmlns="http://www.w3.org/2000/svg" height="1024" preserveAspectRatio="none" style="display:block" viewBox="9.648 9.814 2027.532 2027.524" width="1024"><path d="M996.99 10.165c559.57-14.589 1025.07 427.116 1039.83 986.683 14.76 559.572-426.81 1025.192-986.37 1040.122-559.804 14.94-1025.677-426.85-1040.443-986.66C-4.759 490.499 437.178 24.76 996.99 10.165" fill="#0f1618"/><path d="M1141.02 481.036c1.94 2.314 1.32 672.484 1.69 736.924-35.94 30.98-73.72 60.86-110.35 91.23l-.71-.68c-1.03-4.04-.68-46.3-.7-53.07l-.3-140.6-.62-536.379c12.96-12.584 31.97-28.404 45.83-40.309a2861 2861 0 0 0 65.16-57.116m435.78 3.885c1.53 23.747.45 61.146.47 85.787l.06 160.162.21 487.74c-31.23 28.4-74.72 64.19-107.91 90.96-1.46-8.89-.73-50.9-.79-62.54-.45-52.32-.54-104.64-.25-156.96l.21-511.556c37.32-29.671 71.86-64.532 108-93.593m178.84 292.748a4397 4397 0 0 1 78.23 65.557c12.3 10.369 25.44 20.267 37.2 31.083l-.23 413.091c-15.69-15.7-32.39-33.03-48.6-47.99-21.69 25.1-43.77 49.84-66.26 74.22l-.7-288.13.03-16.68-26.53-.03c-.06 100.09 1.64 204.82-.49 304.54-35.9-30.43-79.88-61.57-117.12-91.57l.57-131.06c44.91-40.87 97.17-82.33 143.75-122.048 1.17-62.692-1.92-129.369.15-190.983M564.996 807.937c1.023 5.45.641 44.119.647 52.34l-.344 130.734.037 453.489c-13.56 10.27-30.073 25.5-43.118 36.91a9287 9287 0 0 1-71.624 62.31l-1.399-.29c-.973-6.94-.34-46.6-.336-56.38l.067-126.55.497-445.294z" fill="#dad2b5"/><path d="M994.124 316.425q7.291-.396 14.596-.447a680.5 680.5 0 0 1 400.97 124.352c25.33 17.538 60.35 44.538 82.41 66.245-9.65 9.1-24.1 20.346-34.72 28.33-61.41-58.33-149.2-110.737-228.99-138.543-160.91-56.295-337.663-45.765-490.75 29.235-135.099 69.504-244.429 178.752-306.58 318.225l-48.249-.554a728.5 728.5 0 0 1 128.708-201.792 680.27 680.27 0 0 1 371.365-212.067c37.326-7.452 73.286-10.913 111.24-12.984M1589 1341.21l48.23-.01a712.2 712.2 0 0 1-84.12 133.78c-113.2 141.15-277.65 231.78-457.44 252.07a679.3 679.3 0 0 1-418.17-89.48c-33.309-19.69-62.861-41.71-93.023-65.81a449 449 0 0 1-33.97-30.77c10.123-10.55 21.117-21.25 31.475-31.66a635.2 635.2 0 0 0 137.088 100.16c145.661 79.36 316.68 98.28 476.16 52.67 171.93-50.62 308.24-163.93 393.77-320.95" fill="#888986"/><path d="M1002.87 778.964c1.17 2.661 1.57 487.256.4 537.236-6.738-4.43-17.019-13.17-23.811-18.56a4337 4337 0 0 0-37.766-29.43q-27.082-21-53.685-42.6l-.041-348.759zm316.29-1.445c5.67 3.459 36.28 29.507 42.94 35.315 23.14 20.177 49.83 40.469 72.09 61.041.61 35.328.15 72.018.23 107.432l-.11 236.163c-15.79 14.34-35.16 29.6-51.78 43.32-20.36 16.53-42.75 36.48-63.35 52.06-1.76-63.39-.21-135.02-.2-198.88zm-27.5 7.404c1.77 2.998.76 193.129.76 215.667l.1 312.08c-17.15-11.65-46.53-36.92-64.79-50.81a1340 1340 0 0 1-51.13-40.3c-1.68-41.03-.5-91.33-.43-132.99l.1-205.363c10.88-11.066 36.26-31.487 48.86-42.071 21.4-17.99 44.79-39.136 66.53-56.213m-693.662-4.544c7.649 4.397 29.865 24.027 37.184 30.21l78.512 66.497.291 330.894a2986 2986 0 0 1-52.337 44.04 5430 5430 0 0 1-63.528 51.97zm254.806 4.492c.971 4.51.571 29.87.556 36.388l-.058 78.417-.154 325.004c-32.349 28.27-72.072 60.37-105.8 87.54-.927-5.78-.46-33.84-.447-41.09l.153-86.52.275-309.116c29.77-28.452 73.419-63.792 105.475-90.623M353.48 1006.15c9.659 5.6 53.936 44.17 63.531 53.13l.146 160.38c-23.711 20.91-53.462 44.02-78.221 64.58-11.315 9.29-22.639 18.85-34.536 27.36.472-30.56-.154-62.38-.24-93.04l-.086-165.21c15.977-15.95 32.95-31.69 49.406-47.2" fill="#dad2b5"/><path d="M1420.66 1323.79c2 2.05 1.53 14.77 1.57 18.27l24.26-1.06a564.3 564.3 0 0 1-71.25 81.04c-103.34 96.89-235.9 143.71-376.836 138.79-136.369-6.04-264.826-65.72-357.376-166.06-5.496-5.79-10.981-11.92-16.39-17.82 8.171-7.28 14.105-13.47 21.609-21.38 120.212 139.23 284.016 201.52 466.033 168.67 125.52-22.75 236.64-94.97 308.38-200.45" fill="#ba4644"/><path d="M276.869 781.952c1.198 7.379.211 59.163.208 69.549l.472 162.669c-17.595 15.97-34.263 33-52.85 47.94-10.985-9.46-22.1-18.77-33.345-27.92a1042 1042 0 0 1-30.986-25.87l.416-127.621 74.222-63.227c12.552-10.776 29.158-26.043 41.863-35.52m-.868 294.988c2.094 2.33 1.23 215.47 1.048 237.3-18.911-12.96-46.585-35.9-65.227-50.4l-50.971-39.72-.081-41.4z" fill="#dad2b5"/><path d="M993.885 486.431c20.375-1.848 52.555-.297 73.315.702l-30.87 26.74c-18.87-1.981-52.552.435-71.611 2.662a487.67 487.67 0 0 0-279.323 132.769c-21.502 20.603-38.049 40.152-56.381 63.323-5.678 7.652-11.279 15.591-16.864 23.332l-37.429-.048c14.531-24.465 33.786-49.364 52.621-70.723 93.913-106.499 223.99-171.39 366.542-178.757" fill="#ba4644"/><path d="M1727.49 780.784c.06.058.13.107.18.174 2.49 3.3.68 152.869.43 166.954-38.02-.115-76.03.04-114.05.465-2.39-4.088-1.02-60.808-.96-69.589 3.79-3.826 8.76-8.369 12.9-11.861 33.86-28.579 66.86-58.524 101.5-86.143m-1423.296-2.226c6.096 3.715 31.17 25.482 37.813 31.015a3242 3242 0 0 1 81.956 69.232 1809 1809 0 0 1-57.313 54.83c-20.523 18.415-41.576 40.361-62.542 57.667z" fill="#dad2b5"/><path d="M1182.37 510.986c86.79 28.334 184.43 95.093 241.41 166.528.46 15.937.22 32.71.22 48.717-57.56-81.293-147.69-149.829-241.07-184.295zM564.863 770.909c1.871 2.6 1.17 10.226 1.134 13.924-8.636 10.524-28.668 28.64-38.83 38.255l-77.124 72.145-192.439 180.887c-32.082 30.2-65.086 59.73-96.578 90.6-1.847-1.6-1.121-12.48-1.091-15.3 66.203-60.14 132.426-124.7 198.046-185.928q69.688-64.41 138.513-129.741c22.894-21.585 46.064-42.623 68.369-64.842m238.818-137.192c2.964 2.942 14.306 36.669 16.27 42.215 14.123-.092 33.079 1.551 47.682 2.281-12.881 10.13-25.111 19.016-38.468 28.543 6.253 16.678 9.838 28.347 13.793 45.776-12.306-8.048-25.508-18.208-37.456-27.025-13.647 8.766-26.251 18.375-40.463 27.264 4.162-15.805 7.763-29.409 13.981-44.641-10.372-6.779-27.891-21.773-37.845-30.082q24.024-1.2 48.062-2.114c4.177-14.458 9.295-28.083 14.444-42.217" fill="#ba4644"/></svg>
